<svg id="Calque_1" data-name="Calque 1" xmlns="http://www.w3.org/2000/svg" viewBox="0 0 2984.46 1664.37"><defs><style>.cls-1{fill:#e94174;}.cls-2{fill:#8ec475;}</style></defs><path class="cls-1" d="M203.25,1606.47l3.41-4.1c57.52-69.27,155.47-86.89,235-44.66,83,44.07,170.48,71.2,247.51,71.2,128.43,0,182.76-42,182.76-113.59,0-76.54-81.5-101.25-217.32-155.56l-200-83.93C281.7,1206.69,131.07,1061,131.07,828.9c0-274.09,247-498.81,597.59-498.81,119.19,0,246.77,29.39,362.21,90.28,98.77,52.09,126.39,180.83,56.81,268.18h0c-51.56,64.78-141.1,87.83-216.05,52.7-64.4-30.27-128.81-45.69-203-45.69-103.7,0-167.85,37.08-167.85,108.65,0,76.55,91.38,103.71,237.07,160.51l195.17,76.56c200,79,313.62,217.3,313.62,439.56,0,271.63-227.18,513.62-627.23,513.62-135.16,0-283.51-33-418.62-101.19C153.83,1839.18,126.78,1698.53,203.25,1606.47Z" transform="translate(-131.07 -330.09)"/><path class="cls-2" d="M1901.32,347.69h162.89a134.08,134.08,0,0,1,134.1,134.06V820.1a134.1,134.1,0,0,0,134.08,134.1h218a134.1,134.1,0,0,0,134.1-134.1V481.77a134.08,134.08,0,0,1,134.08-134.08h162.91a134.08,134.08,0,0,1,134.08,134.08V1842.62a134.08,134.08,0,0,1-134.08,134.08H2818.57a134.08,134.08,0,0,1-134.1-134.06V1464.19a134.08,134.08,0,0,0-134.08-134.08h-218a134.08,134.08,0,0,0-134.08,134.08v378.43a134.08,134.08,0,0,1-134.08,134.08H1901.32a134.08,134.08,0,0,1-134.08-134.08V481.77A134.08,134.08,0,0,1,1901.32,347.69Z" transform="translate(-131.07 -330.09)"/></svg>