<svg id="Calque_1" data-name="Calque 1" xmlns="http://www.w3.org/2000/svg" viewBox="0 0 3246.61 2324.55"><defs><style>.cls-1{fill:#e94174;}.cls-2{fill:#8ec476;}.cls-3{fill:#8ec475;}</style></defs><path class="cls-1" d="M3516.52,1142.82c78.61,1.53,123.71,69,100.84,150.85L3455,1876.14c-30.11,107.56-92.13,211.45-177.73,297l-471.86,471.86-470.67,470.67c-52.07,52.07-126.33,61.94-166.18,22.1l-144.08-144.09c-39.85-39.85-30-114.11,22.09-166.17l108.26-108.26,51-213.13c25.8-107.75,86.69-212.77,172.3-298.37l230.33-230.34,47.07-47.07,188.27-188.27c52.07-52.07,126.33-61.94,166.18-22.09s30,114.11-22.1,166.17l-188.27,188.27-47.06,47.07c-25.89,25.89-30.86,63.28-11.05,83.09s57.2,14.84,83.09-11.05l354.77-354.77,153.56-550.69C3355.81,1206.27,3437.91,1141.28,3516.52,1142.82Z" transform="translate(-376.69 -837.73)"/><path class="cls-2" d="M667.06,1288.12l153.56,550.69,354.77,354.77c25.89,25.89,63.28,30.86,83.09,11.05s14.84-57.2-11-83.09l-47.06-47.07L1012.1,1886.2c-52.07-52.06-62-126.32-22.1-166.17s114.11-30,166.18,22.09l188.27,188.27,47.07,47.07,230.33,230.34c85.61,85.6,146.5,190.62,172.3,298.37l51,213.13,108.26,108.26c52.07,52.06,61.94,126.32,22.09,166.17l-144.08,144.09c-39.85,39.84-114.11,30-166.18-22.1l-470.67-470.67L722.75,2173.19c-85.6-85.6-147.62-189.49-177.73-297L382.64,1293.67c-22.87-81.86,22.23-149.32,100.84-150.85S644.19,1206.27,667.06,1288.12Z" transform="translate(-376.69 -837.73)"/><path class="cls-1" d="M1272.38,1491.76l1.75-2.1c29.47-35.49,79.66-44.52,120.4-22.88,42.52,22.58,87.35,36.48,126.82,36.48,65.8,0,93.64-21.51,93.64-58.2,0-39.22-41.76-51.88-111.35-79.71l-102.49-43c-88.57-35.43-165.75-110.08-165.75-229,0-140.44,126.53-255.58,306.19-255.58,61.07,0,126.44,15.06,185.59,46.26,50.61,26.69,64.76,92.65,29.11,137.41h0c-26.42,33.19-72.3,45-110.7,27-33-15.51-66-23.41-104-23.41-53.13,0-86,19-86,55.67,0,39.22,46.82,53.14,121.47,82.24l100,39.23c102.49,40.48,160.69,111.34,160.69,225.22,0,139.18-116.4,263.17-321.38,263.17-69.25,0-145.26-16.91-214.49-51.85C1247.06,1611,1233.2,1538.93,1272.38,1491.76Z" transform="translate(-376.69 -837.73)"/><path class="cls-3" d="M2142.44,846.79h83.46a68.7,68.7,0,0,1,68.71,68.7v173.35a68.71,68.71,0,0,0,68.7,68.71H2475a68.71,68.71,0,0,0,68.71-68.71V915.49a68.7,68.7,0,0,1,68.71-68.7h83.46a68.7,68.7,0,0,1,68.7,68.7v697.27a68.7,68.7,0,0,1-68.7,68.7h-83.46a68.7,68.7,0,0,1-68.71-68.7v-193.9a68.7,68.7,0,0,0-68.71-68.7H2363.31a68.7,68.7,0,0,0-68.7,68.7v193.9a68.7,68.7,0,0,1-68.71,68.7h-83.46a68.7,68.7,0,0,1-68.7-68.7V915.49A68.7,68.7,0,0,1,2142.44,846.79Z" transform="translate(-376.69 -837.73)"/></svg>